<svg id="svg" xmlns="http://www.w3.org/2000/svg" xmlns:xlink="http://www.w3.org/1999/xlink" width="400" height="400" viewBox="0, 0, 400,400"><g id="svgg"><path id="path0" d="M197.714 29.551 C 190.219 32.332,186.129 36.171,177.807 48.240 C 174.833 52.552,169.880 59.662,166.800 64.039 C 163.720 68.416,156.340 79.027,150.400 87.619 C 139.774 102.988,121.745 128.943,116.792 136.000 C 92.186 171.060,79.333 190.053,79.858 190.578 C 80.215 190.935,90.167 191.131,101.975 191.013 L 123.443 190.800 131.148 179.600 C 135.385 173.440,141.109 165.160,143.868 161.200 C 146.626 157.240,151.944 149.500,155.686 144.000 C 159.427 138.500,164.739 130.760,167.489 126.800 C 170.240 122.840,176.951 113.120,182.402 105.200 C 187.854 97.280,194.438 87.740,197.033 84.000 C 199.629 80.260,202.528 76.035,203.476 74.611 C 205.925 70.932,204.463 69.122,231.170 108.911 C 244.606 128.930,257.672 148.345,260.204 152.055 L 264.808 158.800 220.040 159.007 L 175.271 159.213 173.374 161.807 C 172.331 163.233,167.426 169.933,162.476 176.697 C 157.526 183.460,153.285 189.490,153.052 190.097 C 152.694 191.030,166.350 191.200,241.914 191.200 C 338.310 191.200,333.055 191.445,329.743 187.108 C 328.942 186.059,324.016 178.900,318.796 171.200 C 313.577 163.500,307.458 154.500,305.198 151.200 C 302.939 147.900,297.547 139.980,293.217 133.600 C 271.245 101.227,264.988 92.044,255.605 78.400 C 253.335 75.100,246.857 65.560,241.209 57.200 C 235.560 48.840,229.405 40.175,227.531 37.944 C 220.263 29.295,207.835 25.797,197.714 29.551 M79.712 209.800 C 80.045 210.350,83.399 215.300,87.163 220.800 C 90.928 226.300,97.540 236.020,101.857 242.400 C 106.174 248.780,113.752 259.940,118.698 267.200 C 123.643 274.460,130.874 285.080,134.765 290.800 C 176.703 352.439,182.398 360.615,185.512 363.650 C 190.782 368.787,196.146 370.806,204.400 370.758 C 217.204 370.684,222.294 366.831,236.052 346.796 C 241.084 339.470,246.460 331.716,248.000 329.566 C 249.540 327.416,251.993 323.934,253.450 321.828 C 254.908 319.723,257.986 315.300,260.291 312.000 C 262.595 308.700,270.604 297.180,278.089 286.400 C 285.574 275.620,293.386 264.370,295.449 261.400 C 297.512 258.430,300.886 253.570,302.946 250.600 C 305.006 247.630,308.449 242.680,310.597 239.600 C 312.745 236.520,316.109 231.660,318.072 228.800 C 320.034 225.940,323.973 220.270,326.824 216.200 L 332.008 208.800 309.674 208.800 L 287.340 208.800 283.792 213.800 C 281.841 216.550,277.915 222.220,275.069 226.400 C 272.223 230.580,268.273 236.340,266.291 239.200 C 264.309 242.060,260.339 247.820,257.469 252.000 C 245.636 269.231,226.696 296.743,223.323 301.600 C 221.337 304.460,217.726 309.680,215.299 313.200 C 206.583 325.841,205.855 326.800,204.972 326.800 C 204.480 326.800,195.913 314.560,185.934 299.600 C 166.028 269.757,152.449 249.672,148.208 243.800 L 145.464 240.000 190.603 240.000 L 235.743 240.000 240.447 233.400 C 243.034 229.770,246.089 225.540,247.235 224.000 C 248.382 222.460,251.372 218.410,253.879 215.000 L 258.438 208.800 168.772 208.800 C 97.249 208.800,79.228 209.002,79.712 209.800 " stroke="none" fill="#000000" fill-rule="evenodd"></path></g></svg>