<svg id="svg" xmlns="http://www.w3.org/2000/svg" xmlns:xlink="http://www.w3.org/1999/xlink" width="400" height="99.5004995004995" viewBox="0, 0, 400,99.5004995004995"><g id="svgg"><path id="path0" d="M57.067 3.299 C 56.256 3.792,54.979 5.005,54.231 5.994 C 52.364 8.460,26.374 45.945,26.374 46.172 C 26.374 46.272,29.042 46.354,32.303 46.354 L 38.232 46.354 41.753 41.259 C 43.690 38.457,48.599 31.309,52.662 25.375 C 56.724 19.441,60.188 14.430,60.360 14.240 C 60.645 13.923,76.123 36.550,76.124 37.286 C 76.124 37.463,70.799 37.593,64.290 37.575 L 52.456 37.541 49.377 41.786 C 47.684 44.121,46.372 46.106,46.462 46.196 C 46.552 46.286,57.453 46.314,70.685 46.257 L 94.743 46.154 89.629 38.671 C 86.817 34.556,82.807 28.662,80.719 25.573 C 68.703 7.800,66.079 4.196,64.508 3.303 C 62.349 2.077,59.079 2.075,57.067 3.299 M124.384 10.775 C 120.329 12.616,119.841 18.638,123.583 20.667 C 124.649 21.245,126.280 21.404,132.906 21.573 C 141.636 21.796,142.258 21.958,142.258 24.002 C 142.258 26.186,141.428 26.374,131.798 26.374 L 123.114 26.374 121.664 28.272 L 120.214 30.170 130.469 30.277 C 144.651 30.424,146.853 29.614,146.853 24.248 C 146.853 19.371,145.444 18.680,135.065 18.467 C 126.815 18.298,125.475 18.005,125.475 16.374 C 125.475 14.217,126.416 13.986,135.217 13.986 L 143.360 13.986 144.807 12.220 C 145.603 11.249,146.254 10.350,146.254 10.222 C 146.254 9.513,126.039 10.023,124.384 10.775 M149.451 15.765 C 149.451 27.821,151.938 30.517,163.037 30.495 C 173.313 30.475,175.425 28.139,175.425 16.796 L 175.425 9.990 173.027 9.990 L 170.629 9.990 170.629 16.894 C 170.629 26.078,170.240 26.557,162.804 26.505 C 155.105 26.451,154.490 25.745,154.312 16.752 L 154.178 9.990 151.814 9.990 L 149.451 9.990 149.451 15.765 M180.904 11.764 C 180.088 12.740,179.421 13.639,179.421 13.762 C 179.421 13.885,183.636 13.986,188.789 13.986 C 198.918 13.986,199.401 14.096,199.401 16.411 C 199.401 18.217,198.488 18.382,188.480 18.382 L 179.021 18.382 179.021 24.376 L 179.021 30.370 188.711 30.367 C 199.473 30.365,200.906 30.143,202.878 28.171 C 204.943 26.106,204.539 21.632,202.174 20.367 C 201.378 19.941,201.388 19.898,202.578 18.543 C 204.815 15.994,203.978 12.177,200.873 10.767 C 199.402 10.099,198.187 10.007,190.794 9.999 L 182.387 9.990 180.904 11.764 M198.740 22.327 C 199.735 23.153,199.580 25.039,198.457 25.775 C 197.680 26.284,196.315 26.374,190.764 26.284 L 184.016 26.174 183.891 24.430 C 183.672 21.377,183.384 21.488,191.149 21.641 C 196.272 21.742,198.252 21.921,198.740 22.327 M209.590 35.501 C 208.711 35.922,207.435 36.872,206.754 37.614 C 205.487 38.992,178.321 77.997,177.945 78.978 C 177.775 79.420,178.845 79.520,183.709 79.520 L 189.681 79.520 200.589 63.636 C 206.588 54.900,211.701 47.530,211.951 47.258 C 212.301 46.877,213.464 48.352,216.991 53.651 C 219.513 57.440,223.138 62.832,225.046 65.634 C 226.955 68.437,228.394 70.734,228.244 70.740 C 228.094 70.746,222.577 70.742,215.983 70.730 L 203.994 70.708 200.893 75.015 L 197.791 79.321 222.036 79.424 C 235.371 79.480,246.377 79.431,246.494 79.313 C 246.612 79.196,245.265 76.992,243.503 74.415 C 241.740 71.838,235.653 62.897,229.976 54.545 C 224.299 46.194,219.214 38.779,218.676 38.068 C 216.484 35.175,212.577 34.071,209.590 35.501 M132.860 36.152 C 125.156 37.829,122.079 41.368,122.078 48.551 C 122.078 53.876,123.646 56.759,127.672 58.837 C 131.299 60.709,132.478 60.835,148.851 61.093 C 165.303 61.352,165.587 61.386,167.124 63.284 C 167.972 64.330,168.033 66.785,167.248 68.302 C 166.033 70.652,165.327 70.729,145.073 70.729 L 126.726 70.729 123.503 74.891 C 121.730 77.180,120.280 79.168,120.280 79.308 C 120.280 79.914,165.970 79.292,168.032 78.658 C 179.003 75.286,181.817 61.076,172.466 56.268 C 168.462 54.209,168.564 54.220,151.648 53.963 C 132.181 53.668,131.868 53.590,131.868 49.066 C 131.868 44.477,132.398 44.357,152.708 44.350 C 162.015 44.346,169.815 44.211,170.041 44.050 C 170.379 43.809,172.059 41.678,176.340 36.064 C 176.905 35.324,136.284 35.406,132.860 36.152 M234.565 35.755 C 234.565 35.979,255.429 66.832,260.397 73.954 C 264.561 79.924,268.042 81.409,272.519 79.125 C 274.345 78.194,273.863 78.851,291.148 53.746 C 294.325 49.131,298.452 43.152,300.318 40.460 L 303.711 35.564 297.610 35.570 L 291.508 35.576 280.320 51.913 C 271.270 65.127,269.032 68.156,268.612 67.758 C 268.326 67.487,263.367 60.177,257.591 51.515 L 247.089 35.764 240.827 35.654 C 237.383 35.594,234.565 35.639,234.565 35.755 M309.629 40.260 C 312.063 42.842,318.193 49.271,323.252 54.545 L 332.450 64.136 332.459 71.840 L 332.468 79.544 337.562 79.433 L 342.657 79.321 342.766 71.575 L 342.875 63.830 348.545 57.789 C 360.597 44.948,365.162 40.076,367.216 37.862 L 369.347 35.564 362.795 35.568 L 356.244 35.571 349.393 43.260 C 345.625 47.489,341.467 52.242,340.153 53.822 L 337.764 56.694 334.017 52.425 C 331.956 50.077,327.603 45.322,324.344 41.860 L 318.418 35.564 311.812 35.564 L 305.205 35.564 309.629 40.260 M27.173 50.586 C 27.173 50.716,31.165 56.695,36.044 63.873 C 40.924 71.050,47.051 80.070,49.662 83.916 C 56.624 94.176,57.949 95.247,62.429 94.241 C 65.264 93.604,66.359 92.356,74.988 79.927 C 79.569 73.328,85.969 64.126,89.211 59.478 C 92.453 54.829,95.105 50.869,95.105 50.677 C 95.105 50.485,92.453 50.378,89.211 50.439 L 83.317 50.549 78.222 57.942 C 75.420 62.008,70.508 69.152,67.307 73.819 C 64.106 78.485,61.363 82.376,61.213 82.467 C 61.062 82.557,57.391 77.346,53.056 70.886 C 48.720 64.426,45.393 59.130,45.663 59.116 C 45.933 59.102,51.317 59.113,57.627 59.139 L 69.100 59.187 72.113 55.139 C 73.769 52.913,75.125 50.925,75.125 50.721 C 75.125 50.496,65.638 50.350,51.149 50.350 C 37.962 50.350,27.173 50.456,27.173 50.586 " stroke="none" fill="#000000" fill-rule="evenodd"></path></g></svg>